<svg xmlns="http://www.w3.org/2000/svg" version="1.1" xmlns:xlink="http://www.w3.org/1999/xlink" xmlns:svgjs="http://svgjs.dev/svgjs" width="1000" height="128" viewBox="0 0 1000 128"><g transform="matrix(1,0,0,1,-0.6060605536430899,-0.5412337843032802)"><svg viewBox="0 0 396 51" data-background-color="#ffffff" preserveAspectRatio="xMidYMid meet" height="128" width="1000" xmlns="http://www.w3.org/2000/svg" xmlns:xlink="http://www.w3.org/1999/xlink"><g id="tight-bounds" transform="matrix(1,0,0,1,0.240000020757293,0.21564783593333914)"><svg viewBox="0 0 395.52 50.56870024550268" height="50.56870024550268" width="395.52"><g><svg viewBox="0 0 454.3176651261313 58.086200000000005" height="50.56870024550268" width="395.52"><g><svg viewBox="0 0 454.3176651261313 58.086200000000005" height="58.086200000000005" width="454.3176651261313"><g id="textblocktransform"><svg viewBox="0 0 454.3176651261313 58.086200000000005" height="58.086200000000005" width="454.3176651261313" id="textblock"><g><svg viewBox="0 0 454.3176651261313 58.086200000000005" height="58.086200000000005" width="454.3176651261313"><g><svg><g></g><g></g></svg></g><g><svg><g></g><g><svg></svg></g></svg></g><g id="text-0"><svg viewBox="0 0 454.3176651261313 58.086200000000005" height="58.086200000000005" width="454.3176651261313"><g transform="matrix(1,0,0,1,0,11.0931)"><svg width="195.85000000000005" viewBox="3.450000047683716 -35.20000076293945 195.83999633789062 35.900001525878906" height="35.900000000000006" data-palette-color="#ffffff"><path d="M16.7-35L16.7-35Q21.55-35 24.3-34 27.05-33 28.23-30.55 29.4-28.1 29.4-23.7L29.4-23.7Q29.4-19.3 28.28-16.85 27.15-14.4 24.6-13.43 22.05-12.45 17.7-12.45L17.7-12.45Q15.4-12.45 13.2-12.65 11-12.85 9.1-13.15 7.2-13.45 5.85-13.78 4.5-14.1 4-14.4L4-14.4 4.15-18.2Q7.1-18.2 10.28-18.2 13.45-18.2 16.55-18.2L16.55-18.2Q18.55-18.25 19.68-18.7 20.8-19.15 21.28-20.35 21.75-21.55 21.75-23.7L21.75-23.7Q21.75-25.9 21.28-27.1 20.8-28.3 19.68-28.78 18.55-29.25 16.55-29.25L16.55-29.25Q11.95-29.25 8.65-29.2 5.35-29.15 4.2-29L4.2-29 3.45-34.5Q5.55-34.75 7.4-34.85 9.25-34.95 11.43-34.98 13.6-35 16.7-35ZM3.45-34.5L11.1-34.5 11.1 0 3.45 0 3.45-34.5ZM42-34.5L49.25-34.5Q50.2-34.5 50.92-33.95 51.65-33.4 51.9-32.5L51.9-32.5 61.9 0 54.1 0 47.05-25.35Q46.85-26.2 46.65-27.08 46.45-27.95 46.3-28.75L46.3-28.75 44.95-28.75Q44.8-27.95 44.62-27.08 44.45-26.2 44.2-25.35L44.2-25.35 37.15 0 29.3 0 39.35-32.5Q39.6-33.4 40.32-33.95 41.05-34.5 42-34.5L42-34.5ZM36.65-14.85L54.55-14.85 54.55-9.1 36.65-9.1 36.65-14.85ZM70.25-34.5L77.9-34.5 77.9 0 70.25 0 70.25-34.5ZM59.9-34.5L88.3-34.5 88.3-28.5 59.9-28.5 59.9-34.5ZM105.89-35L105.89-35Q110.44-35 113.27-34.08 116.09-33.15 117.42-30.93 118.74-28.7 118.74-24.75L118.74-24.75Q118.74-22.35 118.12-20.53 117.49-18.7 116.04-17.6 114.59-16.5 112.09-16.2L112.09-16.2 112.09-15.95Q112.99-15.8 113.97-15.25 114.94-14.7 115.79-13.63 116.64-12.55 117.04-10.75L117.04-10.75 120.04 0 111.99 0 109.34-10.5Q108.89-12.2 108.02-12.85 107.14-13.5 105.59-13.5L105.59-13.5Q102.19-13.5 99.87-13.53 97.54-13.55 95.97-13.6 94.39-13.65 93.14-13.7L93.14-13.7 93.29-19.25 105.74-19.25Q107.74-19.25 108.92-19.68 110.09-20.1 110.57-21.2 111.04-22.3 111.04-24.25L111.04-24.25Q111.04-26.25 110.57-27.33 110.09-28.4 108.92-28.83 107.74-29.25 105.74-29.25L105.74-29.25Q101.04-29.25 97.79-29.2 94.54-29.15 93.34-29.05L93.34-29.05 92.59-34.5Q94.69-34.75 96.54-34.85 98.39-34.95 100.59-34.98 102.79-35 105.89-35ZM92.59-34.5L100.14-34.5 100.14 0 92.59 0 92.59-34.5ZM124.99-34.5L132.59-34.5 132.59 0 124.99 0 124.99-34.5ZM153.29-35.2L153.29-35.2Q157.39-35.2 160.24-34.33 163.09-33.45 164.81-31.43 166.54-29.4 167.34-25.93 168.14-22.45 168.14-17.25L168.14-17.25Q168.14-12.05 167.34-8.58 166.54-5.1 164.81-3.08 163.09-1.05 160.24-0.18 157.39 0.7 153.29 0.7L153.29 0.7Q149.19 0.7 146.34-0.18 143.49-1.05 141.74-3.08 139.99-5.1 139.19-8.58 138.39-12.05 138.39-17.25L138.39-17.25Q138.39-22.45 139.19-25.93 139.99-29.4 141.74-31.43 143.49-33.45 146.34-34.33 149.19-35.2 153.29-35.2ZM153.29-29.15L153.29-29.15Q150.64-29.15 149.16-28.1 147.69-27.05 147.06-24.48 146.44-21.9 146.44-17.25L146.44-17.25Q146.44-12.65 147.06-10.05 147.69-7.45 149.16-6.4 150.64-5.35 153.29-5.35L153.29-5.35Q155.89-5.35 157.36-6.4 158.84-7.45 159.46-10.05 160.09-12.65 160.09-17.25L160.09-17.25Q160.09-21.9 159.46-24.48 158.84-27.05 157.36-28.1 155.89-29.15 153.29-29.15ZM181.24-34.5L188.89-34.5 188.89 0 181.24 0 181.24-34.5ZM170.89-34.5L199.29-34.5 199.29-28.5 170.89-28.5 170.89-34.5Z" opacity="1" transform="matrix(1,0,0,1,0,0)" fill="#ffffff" class="undefined-p-0"></path></svg></g><g><svg xmlns="http://www.w3.org/2000/svg" xmlns:xlink="http://www.w3.org/1999/xlink" version="1.1" x="209.56380000000004" y="0" viewBox="10.799999237060547 23.899999618530273 75.70506286621094 61.42499542236328" enable-background="new 0 0 100 100" xml:space="preserve" height="58.086200000000005" width="71.59006512613126" class="icon-s-0" data-fill-palette-color="accent" id="s-0"><g fill="#ffd700" data-fill-palette-color="accent"><path fill="#ffd700" d="M83.6 23.9H13.7c-1.6 0-2.9 1.3-2.9 2.9v45c0 1.6 1.3 2.9 2.9 2.9h30.2c-2.4 2.4-8 7.7-8.5 8.3-0.6 0.6 0.6 1.8 1.2 1.2 0.5-0.5 6.1-5.9 8.5-8.3 0 2.5 0 4.9 0 7.4 0 2.7 4.3 2.7 4.3 0 0-2.4 0-4.9 0-7.3 2.5 2.4 7.9 7.7 8.4 8.2 0.6 0.6 1.8-0.6 1.2-1.2-0.5-0.5-6.1-6-8.5-8.3h33.1c1.6 0 2.9-1.3 2.9-2.9v-45C86.6 25.2 85.2 23.9 83.6 23.9zM83.1 71.3H14.2v-44h68.9V71.3z" data-fill-palette-color="accent"></path><path fill="#ffd700" d="M25.8 69.5l8 0 15.9-0.1 15.9-0.1 8-0.1 8-0.1h0.1v-0.1l-0.1-7.4-0.1 7.3-7.8-0.1-8-0.1-15.9-0.1-15.9-0.1-8 0c-2.5 0-4.9 0-7.4 0l-0.1-18.8c0-3.2 0-6.4-0.1-9.6l-0.1-9.3 6-0.1 6.4-0.1c4.3-0.1 8.5-0.1 12.8-0.2-4.3-0.1-8.5-0.1-12.8-0.2l-6.4-0.1L17.8 30h-0.3v0.3L17.4 40c0 3.2 0 6.4-0.1 9.6l-0.1 19.3v0.5h0.5C20.5 69.5 23.1 69.5 25.8 69.5z" data-fill-palette-color="accent"></path><polygon fill="#ffd700" points="26.6,60.7 27.6,62.1 42.7,50.1 47.9,53.7 69.6,37.8 68.6,36.4 47.9,51.6 42.7,48  " data-fill-palette-color="accent"></polygon></g></svg></g><g transform="matrix(1,0,0,1,294.8676651261313,11.0931)"><svg width="159.45000000000002" viewBox="3.450000047683716 -35.20000076293945 159.44000244140625 35.900001525878906" height="35.900000000000006" data-palette-color="#ffffff"><path d="M16.55-34.9L16.55-34.9Q21.05-34.9 23.73-34.13 26.4-33.35 27.6-31.4 28.8-29.45 28.8-25.9L28.8-25.9Q28.8-22.2 27.38-20.28 25.95-18.35 22.7-18.05L22.7-18.05 22.7-17.75Q26.7-17.4 28.3-15.08 29.9-12.75 29.9-8.6L29.9-8.6Q29.9-5.05 28.68-3.1 27.45-1.15 24.88-0.38 22.3 0.4 18.15 0.4L18.15 0.4Q14.8 0.4 12.33 0.38 9.85 0.35 7.75 0.25 5.65 0.15 3.45 0L3.45 0 4.2-5.3Q5.4-5.25 8.83-5.2 12.25-5.15 16.8-5.15L16.8-5.15Q18.9-5.15 20.1-5.55 21.3-5.95 21.78-7.03 22.25-8.1 22.25-10.1L22.25-10.1Q22.25-12.25 21.75-13.38 21.25-14.5 20.03-14.95 18.8-15.4 16.65-15.45L16.65-15.45 4.15-15.45 4.15-20.3 16.55-20.3Q18.4-20.35 19.48-20.7 20.55-21.05 21-22.05 21.45-23.05 21.45-24.85L21.45-24.85Q21.45-26.7 20.98-27.68 20.5-28.65 19.35-29 18.2-29.35 16.15-29.35L16.15-29.35Q13.35-29.35 11.2-29.35 9.05-29.35 7.35-29.33 5.65-29.3 4.2-29.2L4.2-29.2 3.45-34.5Q5.45-34.7 7.33-34.77 9.2-34.85 11.4-34.88 13.6-34.9 16.55-34.9ZM3.45-34.5L10.95-34.5 10.95 0 3.45 0 3.45-34.5ZM49.2-35.2L49.2-35.2Q53.3-35.2 56.15-34.33 59-33.45 60.72-31.43 62.45-29.4 63.25-25.93 64.05-22.45 64.05-17.25L64.05-17.25Q64.05-12.05 63.25-8.58 62.45-5.1 60.72-3.08 59-1.05 56.15-0.18 53.3 0.7 49.2 0.7L49.2 0.7Q45.1 0.7 42.25-0.18 39.4-1.05 37.65-3.08 35.9-5.1 35.1-8.58 34.3-12.05 34.3-17.25L34.3-17.25Q34.3-22.45 35.1-25.93 35.9-29.4 37.65-31.43 39.4-33.45 42.25-34.33 45.1-35.2 49.2-35.2ZM49.2-29.15L49.2-29.15Q46.55-29.15 45.07-28.1 43.6-27.05 42.97-24.48 42.35-21.9 42.35-17.25L42.35-17.25Q42.35-12.65 42.97-10.05 43.6-7.45 45.07-6.4 46.55-5.35 49.2-5.35L49.2-5.35Q51.8-5.35 53.27-6.4 54.75-7.45 55.37-10.05 56-12.65 56-17.25L56-17.25Q56-21.9 55.37-24.48 54.75-27.05 53.27-28.1 51.8-29.15 49.2-29.15ZM78.8-34.5L86.05-34.5Q87-34.5 87.72-33.95 88.44-33.4 88.69-32.5L88.69-32.5 98.69 0 90.89 0 83.84-25.35Q83.64-26.2 83.44-27.08 83.25-27.95 83.09-28.75L83.09-28.75 81.75-28.75Q81.59-27.95 81.42-27.08 81.25-26.2 81-25.35L81-25.35 73.94 0 66.09 0 76.14-32.5Q76.39-33.4 77.12-33.95 77.84-34.5 78.8-34.5L78.8-34.5ZM73.44-14.85L91.34-14.85 91.34-9.1 73.44-9.1 73.44-14.85ZM115.49-35L115.49-35Q120.04-35 122.87-34.08 125.69-33.15 127.02-30.93 128.34-28.7 128.34-24.75L128.34-24.75Q128.34-22.35 127.72-20.53 127.09-18.7 125.64-17.6 124.19-16.5 121.69-16.2L121.69-16.2 121.69-15.95Q122.59-15.8 123.57-15.25 124.54-14.7 125.39-13.63 126.24-12.55 126.64-10.75L126.64-10.75 129.64 0 121.59 0 118.94-10.5Q118.49-12.2 117.62-12.85 116.74-13.5 115.19-13.5L115.19-13.5Q111.79-13.5 109.47-13.53 107.14-13.55 105.57-13.6 103.99-13.65 102.74-13.7L102.74-13.7 102.89-19.25 115.34-19.25Q117.34-19.25 118.52-19.68 119.69-20.1 120.17-21.2 120.64-22.3 120.64-24.25L120.64-24.25Q120.64-26.25 120.17-27.33 119.69-28.4 118.52-28.83 117.34-29.25 115.34-29.25L115.34-29.25Q110.64-29.25 107.39-29.2 104.14-29.15 102.94-29.05L102.94-29.05 102.19-34.5Q104.29-34.75 106.14-34.85 107.99-34.95 110.19-34.98 112.39-35 115.49-35ZM102.19-34.5L109.74-34.5 109.74 0 102.19 0 102.19-34.5ZM148.09-35L148.09-35Q152.19-35 155.02-34.13 157.84-33.25 159.56-31.25 161.29-29.25 162.09-25.83 162.89-22.4 162.89-17.25L162.89-17.25Q162.89-12.1 162.09-8.68 161.29-5.25 159.56-3.25 157.84-1.25 155.02-0.38 152.19 0.5 148.09 0.5L148.09 0.5Q144.14 0.5 140.84 0.35 137.54 0.2 134.54 0L134.54 0 137.74-5.65Q139.64-5.55 142.27-5.48 144.89-5.4 148.09-5.4L148.09-5.4Q150.64-5.4 152.12-6.43 153.59-7.45 154.22-10.05 154.84-12.65 154.84-17.25L154.84-17.25Q154.84-21.85 154.22-24.45 153.59-27.05 152.12-28.1 150.64-29.15 148.09-29.15L148.09-29.15Q145.04-29.15 142.64-29.13 140.24-29.1 137.94-29.1L137.94-29.1 134.54-34.5Q137.54-34.7 140.81-34.85 144.09-35 148.09-35ZM134.54-34.5L142.19-34.5 142.19 0 134.54 0 134.54-34.5Z" opacity="1" transform="matrix(1,0,0,1,0,0)" fill="#ffffff" class="undefined-p-1"></path></svg></g></svg></g></svg></g></svg></g></svg></g></svg></g><defs></defs></svg><rect width="395.52" height="50.56870024550268" fill="none" stroke="none" visibility="hidden"></rect></g></svg></g></svg>